<svg width="16" height="16" viewBox="0 0 16 16" fill="none" xmlns="http://www.w3.org/2000/svg">
<path fill-rule="evenodd" clip-rule="evenodd" d="M13.7808 4.21983C13.9212 4.36045 14.0001 4.55108 14.0001 4.74983C14.0001 4.94858 13.9212 5.1392 13.7808 5.27983L6.53083 12.5298C6.3902 12.6702 6.19958 12.7491 6.00083 12.7491C5.80208 12.7491 5.61145 12.6702 5.47083 12.5298L2.22083 9.27983C2.08835 9.13765 2.01623 8.94961 2.01965 8.7553C2.02308 8.561 2.10179 8.37562 2.23921 8.2382C2.37662 8.10079 2.56201 8.02208 2.75631 8.01865C2.95061 8.01522 3.13865 8.08735 3.28083 8.21983L6.00083 10.9398L12.7208 4.21983C12.8614 4.07938 13.052 4.00049 13.2508 4.00049C13.4495 4.00049 13.6402 4.07938 13.7808 4.21983Z" fill="currentColor"/>
</svg>
