
<svg width="12" height="13" viewBox="0 0 12 13" fill="none" xmlns="http://www.w3.org/2000/svg">
<path fill-rule="evenodd" clip-rule="evenodd" d="M1.125 6.5C1.125 5.20707 1.63862 3.96709 2.55286 3.05286C3.46709 2.13862 4.70707 1.625 6 1.625C7.29293 1.625 8.5329 2.13862 9.44715 3.05286C10.3614 3.96709 10.875 5.20707 10.875 6.5C10.875 7.79293 10.3614 9.0329 9.44715 9.94715C8.5329 10.8614 7.29293 11.375 6 11.375C4.70707 11.375 3.46709 10.8614 2.55286 9.94715C1.63862 9.0329 1.125 7.79293 1.125 6.5ZM6 0.5C4.4087 0.5 2.88258 1.13214 1.75736 2.25736C0.632141 3.38258 0 4.9087 0 6.5C0 8.09128 0.632141 9.61745 1.75736 10.7427C2.88258 11.8678 4.4087 12.5 6 12.5C7.59128 12.5 9.11745 11.8678 10.2427 10.7427C11.3678 9.61745 12 8.09128 12 6.5C12 4.9087 11.3678 3.38258 10.2427 2.25736C9.11745 1.13214 7.59128 0.5 6 0.5ZM6.375 4.0625C6.375 3.91332 6.31573 3.77024 6.21025 3.66475C6.10476 3.55926 5.96168 3.5 5.8125 3.5C5.66332 3.5 5.52024 3.55926 5.41475 3.66475C5.30926 3.77024 5.25 3.91332 5.25 4.0625V6.6875C5.25002 6.79984 5.28369 6.90959 5.34664 7.00263C5.40961 7.09566 5.49898 7.16771 5.60325 7.2095L7.47825 7.9595C7.61557 8.00968 7.76707 8.00435 7.90057 7.94475C8.03407 7.88513 8.13915 7.77586 8.19345 7.6401C8.24775 7.50435 8.24708 7.35279 8.19158 7.21752C8.13608 7.08225 8.03002 6.97393 7.896 6.9155L6.375 6.3065V4.0625Z" fill="currentColor" />
</svg>
