<svg width="16" height="10" viewBox="0 0 16 10" fill="none" xmlns="http://www.w3.org/2000/svg">
<path fill-rule="evenodd" clip-rule="evenodd" d="M4.71967 0.219668C5.01256 -0.0732225 5.48744 -0.0732225 5.78033 0.219668C6.07322 0.512558 6.07322 0.987438 5.78033 1.28033L2.06066 5L5.78033 8.7197C6.07322 9.0126 6.07322 9.4874 5.78033 9.7803C5.48744 10.0732 5.01256 10.0732 4.71967 9.7803L0.46967 5.53033C0.176777 5.23744 0.176777 4.76256 0.46967 4.46967L4.71967 0.219668ZM11.2803 0.219668C10.9874 -0.0732225 10.5126 -0.0732225 10.2197 0.219668C9.92678 0.512558 9.92678 0.987438 10.2197 1.28033L13.9393 5L10.2197 8.7197C9.92678 9.0126 9.92678 9.4874 10.2197 9.7803C10.5126 10.0732 10.9874 10.0732 11.2803 9.7803L15.5303 5.53033C15.8232 5.23744 15.8232 4.76256 15.5303 4.46967L11.2803 0.219668Z" fill="currentColor"/>
</svg>
