<svg width="16" height="17" viewBox="0 0 16 17" fill="none" xmlns="http://www.w3.org/2000/svg">
<path opacity="0.5" d="M8 10.5211L4 12.8306L0 10.5211V5.90236L4 3.59277L8 5.90236V10.5211Z" fill="#2C95BF"/>
<path opacity="0.5" d="M12 10.5211L8 12.8306L4 10.5211V5.90236L8 3.59277L12 5.90236V10.5211Z" fill="#626366"/>
<path opacity="0.5" d="M10.0002 13.9852L6.00018 16.2943L1.99902 13.9852V9.36648L6.00018 7.05713L10.0002 9.36648V13.9852Z" fill="#53B748"/>
<path opacity="0.5" d="M16 10.5211L12 12.8306L8 10.5211V5.90236L12 3.59277L16 5.90236V10.5211Z" fill="#F7991C"/>
<path opacity="0.5" d="M14 7.05719L10 9.36654L6 7.05719V2.43826L10 0.128906L14 2.43826V7.05719Z" fill="#EC1E24"/>
<path opacity="0.5" d="M10.0002 7.05719L6.00018 9.36654L1.99902 7.05719V2.43849L6.00018 0.128906L10.0002 2.43849V7.05719Z" fill="#834499"/>
</svg>
