<svg width="14" height="15" viewBox="0 0 14 15" fill="none" xmlns="http://www.w3.org/2000/svg">
<path fill-rule="evenodd" clip-rule="evenodd" d="M3.00003 2.25405V2.25005V2.25505C2.99937 2.45374 2.91988 2.64406 2.77903 2.7842C2.63818 2.92435 2.44748 3.00288 2.24878 3.00255C2.05009 3.00222 1.85964 2.92305 1.71926 2.78244C1.57888 2.64182 1.50003 2.45124 1.50003 2.25255C1.50003 2.05385 1.57888 1.86328 1.71926 1.72266C1.85964 1.58204 2.05009 1.50288 2.24878 1.50255C2.44748 1.50222 2.63818 1.58075 2.77903 1.72089C2.91988 1.86104 2.99937 2.05135 3.00003 2.25005V2.25405ZM3.45003 4.15405C3.88082 3.88245 4.20673 3.47274 4.37448 2.99191C4.54224 2.51107 4.54191 1.98755 4.37356 1.50692C4.2052 1.02629 3.87878 0.616985 3.44765 0.345926C3.01652 0.0748755 2.50619 -0.0419146 2.00008 0.0146654C1.49397 0.0712454 1.02203 0.297845 0.661398 0.657415C0.300768 1.017 0.0727874 1.48827 0.0147274 1.99421C-0.0433326 2.50015 0.0719576 3.01082 0.341758 3.44275C0.611548 3.87467 1.0199 4.20229 1.50003 4.37205V9.62805C0.999338 9.80495 0.577317 10.1532 0.308577 10.6112C0.0398273 11.0692 -0.0583426 11.6075 0.0314174 12.1309C0.121167 12.6542 0.393078 13.1291 0.799068 13.4713C1.20506 13.8136 1.719 14.0014 2.25003 14.0014C2.78106 14.0014 3.29499 13.8136 3.70098 13.4713C4.10698 13.1291 4.37888 12.6542 4.46864 12.1309C4.5584 11.6075 4.46023 11.0692 4.19148 10.6112C3.92273 10.1532 3.50072 9.80495 3.00003 9.62805V6.12305C3.5383 6.71508 4.1945 7.18793 4.92644 7.51119C5.65839 7.83444 6.44988 8.00098 7.25003 8.00005H8.62803C8.80493 8.50074 9.15323 8.92275 9.61123 9.19155C10.0692 9.46025 10.6075 9.55845 11.1309 9.46865C11.6542 9.37895 12.1291 9.10695 12.4713 8.70101C12.8136 8.29501 13.0014 7.78108 13.0014 7.25005C13.0014 6.71902 12.8136 6.20508 12.4713 5.79909C12.1291 5.3931 11.6542 5.12119 11.1309 5.03144C10.6075 4.94168 10.0692 5.03984 9.61123 5.3086C9.15323 5.57734 8.80493 5.99936 8.62803 6.50005H7.25003C6.46133 6.50011 5.68816 6.28071 5.01705 5.86639C4.34595 5.45207 3.80337 4.85917 3.45003 4.15405ZM10.75 8.00005C10.9489 8.00005 11.1397 7.92102 11.2803 7.78038C11.421 7.63973 11.5 7.44896 11.5 7.25005C11.5 7.05114 11.421 6.86036 11.2803 6.71972C11.1397 6.57907 10.9489 6.50005 10.75 6.50005C10.5511 6.50005 10.3603 6.57907 10.2197 6.71972C10.079 6.86036 10 7.05114 10 7.25005C10 7.44896 10.079 7.63973 10.2197 7.78038C10.3603 7.92102 10.5511 8.00005 10.75 8.00005ZM2.25003 12.5C2.44894 12.5 2.63971 12.421 2.78036 12.2803C2.92101 12.1397 3.00003 11.9489 3.00003 11.75C3.00003 11.5511 2.92101 11.3603 2.78036 11.2197C2.63971 11.079 2.44894 11 2.25003 11C2.05112 11 1.86035 11.079 1.7197 11.2197C1.57905 11.3603 1.50003 11.5511 1.50003 11.75C1.50003 11.9489 1.57905 12.1397 1.7197 12.2803C1.86035 12.421 2.05112 12.5 2.25003 12.5Z" fill="#525560"/>
</svg>
