<svg width="14" height="14" viewBox="0 0 14 14" fill="none" xmlns="http://www.w3.org/2000/svg">
<path fill-rule="evenodd" clip-rule="evenodd" d="M6.77494 2.275C6.64246 2.41717 6.57033 2.60522 6.57376 2.79952C6.57719 2.99382 6.6559 3.1792 6.79331 3.31662C6.93073 3.45403 7.11611 3.53274 7.31041 3.53617C7.50471 3.5396 7.69276 3.46748 7.83494 3.335L9.08494 2.085C9.27074 1.89918 9.49134 1.75177 9.73414 1.65121C9.97694 1.55064 10.2371 1.49888 10.4999 1.49888C10.7627 1.49888 11.0229 1.55064 11.2657 1.65121C11.5085 1.75177 11.7291 1.89918 11.9149 2.085C12.1007 2.27082 12.2481 2.49142 12.3487 2.7342C12.4492 2.97699 12.501 3.23721 12.501 3.5C12.501 3.76279 12.4492 4.023 12.3487 4.26579C12.2481 4.50857 12.1007 4.72917 11.9149 4.915L9.41494 7.415C9.22914 7.60095 9.00864 7.74847 8.76582 7.84911C8.52302 7.94976 8.26277 8.00157 7.99994 8.00157C7.7371 8.00157 7.47685 7.94976 7.23405 7.84911C6.99126 7.74847 6.77068 7.60095 6.58494 7.415C6.44276 7.28252 6.25471 7.21039 6.06041 7.21382C5.86611 7.21725 5.68073 7.29596 5.54331 7.43337C5.4059 7.57079 5.32719 7.75617 5.32376 7.95047C5.32033 8.14477 5.39246 8.33282 5.52494 8.475C5.84995 8.80004 6.2358 9.0579 6.66046 9.2338C7.08512 9.4097 7.54028 9.5002 7.99994 9.5002C8.45959 9.5002 8.91475 9.4097 9.33944 9.2338C9.76404 9.0579 10.1499 8.80004 10.4749 8.475L12.9749 5.975C13.6313 5.31858 14.0001 4.4283 14.0001 3.5C14.0001 2.57169 13.6313 1.68141 12.9749 1.025C12.3185 0.36858 11.4282 -0.000183105 10.4999 -0.000183105C9.57164 -0.000183105 8.68135 0.36858 8.02493 1.025L6.77494 2.275ZM2.08494 11.915C1.89898 11.7292 1.75146 11.5087 1.65082 11.2659C1.55017 11.0231 1.49836 10.7628 1.49836 10.5C1.49836 10.2372 1.55017 9.9769 1.65082 9.7341C1.75146 9.4913 1.89898 9.2707 2.08494 9.085L4.58494 6.585C4.77068 6.39904 4.99126 6.25152 5.23405 6.15088C5.47685 6.05023 5.7371 5.99842 5.99994 5.99842C6.26277 5.99842 6.52302 6.05023 6.76582 6.15088C7.00861 6.25152 7.22919 6.39904 7.41494 6.585C7.55711 6.71748 7.74516 6.7896 7.93946 6.78617C8.13376 6.78274 8.31914 6.70403 8.45656 6.56662C8.59397 6.4292 8.67268 6.24382 8.67611 6.04952C8.67954 5.85522 8.60742 5.66717 8.47494 5.525C8.14993 5.19995 7.76407 4.94211 7.33941 4.7662C6.91475 4.59029 6.45959 4.49974 5.99994 4.49974C5.54028 4.49974 5.08512 4.59029 4.66046 4.7662C4.2358 4.94211 3.84995 5.19995 3.52494 5.525L1.02494 8.02499C0.368519 8.68141 -0.000244141 9.5717 -0.000244141 10.5C-0.000244141 11.4283 0.368519 12.3186 1.02494 12.975C1.68135 13.6314 2.57163 14.0002 3.49994 14.0002C4.42824 14.0002 5.31852 13.6314 5.97494 12.975L7.22494 11.725C7.35742 11.5828 7.42954 11.3948 7.42611 11.2005C7.42268 11.0062 7.34397 10.8208 7.20656 10.6834C7.06914 10.546 6.88376 10.4672 6.68946 10.4638C6.49516 10.4604 6.30711 10.5325 6.16494 10.665L4.91494 11.915C4.72919 12.1009 4.50861 12.2485 4.26582 12.3491C4.02302 12.4498 3.76277 12.5016 3.49994 12.5016C3.2371 12.5016 2.97685 12.4498 2.73405 12.3491C2.49126 12.2485 2.27068 12.1009 2.08494 11.915Z" fill="currentColor"/>
</svg>
