<svg width="12" height="15" viewBox="0 0 12 15" fill="none" xmlns="http://www.w3.org/2000/svg">
<path fill-rule="evenodd" clip-rule="evenodd" d="M5.8232 0.176739L2.92675 3.07319C2.76926 3.23068 2.88081 3.49996 3.10353 3.49996H5.24999C5.24999 3.49997 5.24999 3.49997 5.24999 3.49997V9.24995C5.24999 9.66416 5.58578 9.99995 5.99999 9.99995C6.41421 9.99995 6.74999 9.66416 6.74999 9.24995V3.49997C6.74999 3.49997 6.74999 3.49997 6.74999 3.49996H8.89638C9.11918 3.49996 9.23068 3.23068 9.07318 3.07319L6.17675 0.176738C6.07912 0.0791077 5.92083 0.079108 5.8232 0.176739ZM1.75 6.50002C1.61193 6.50002 1.5 6.61194 1.5 6.75002V13.25C1.5 13.3881 1.61193 13.5 1.75 13.5H10.25C10.3881 13.5 10.5 13.3881 10.5 13.25V6.75002C10.5 6.61194 10.3881 6.50002 10.25 6.50002H9.24998C8.83578 6.50002 8.49998 6.16423 8.49998 5.75002C8.49998 5.3358 8.83578 5.00002 9.24998 5.00002H10.25C11.2165 5.00002 12 5.78352 12 6.75002V13.25C12 14.2165 11.2165 15 10.25 15H1.75C0.7835 15 0 14.2165 0 13.25V6.75002C0 5.78352 0.7835 5.00002 1.75 5.00002H2.75C3.16422 5.00002 3.5 5.3358 3.5 5.75002C3.5 6.16423 3.16422 6.50002 2.75 6.50002H1.75Z" fill="#525560"/>
</svg>
