<svg width="568" height="36" viewBox="0 0 568 36" fill="none" xmlns="http://www.w3.org/2000/svg">
<rect width="568" height="4" rx="2" fill="url(#paint0_linear)"/>
<path d="M512.5 8L515.531 13.25H509.469L512.5 8Z" fill="#525560"/>
<path d="M489.833 25V17.9541H488.744V20.9326H485.126V17.9541H484.032V25H485.126V21.8799H488.744V25H489.833ZM495.961 19.6973H494.911V22.8076C494.911 23.6621 494.447 24.1797 493.598 24.1797C492.826 24.1797 492.479 23.7598 492.479 22.8809V19.6973H491.43V23.1396C491.43 24.3848 492.084 25.1025 493.261 25.1025C494.066 25.1025 494.608 24.7607 494.867 24.1602H494.95V25H495.961V19.6973ZM500.302 25.0879C501.645 25.0879 502.499 24.0186 502.499 22.3486C502.499 20.6641 501.649 19.6045 500.302 19.6045C499.574 19.6045 498.949 19.9609 498.666 20.5371H498.583V17.6172H497.533V25H498.544V24.1602H498.622C498.939 24.7461 499.56 25.0879 500.302 25.0879ZM499.999 20.5029C500.888 20.5029 501.42 21.2012 501.42 22.3486C501.42 23.4961 500.888 24.1895 499.999 24.1895C499.115 24.1895 498.568 23.4863 498.563 22.3486C498.568 21.2109 499.12 20.5029 499.999 20.5029ZM507.25 23.5791C507.055 24.0088 506.62 24.2432 505.985 24.2432C505.146 24.2432 504.604 23.6377 504.569 22.6758V22.627H508.324V22.2656C508.324 20.6055 507.431 19.5947 505.951 19.5947C504.452 19.5947 503.5 20.6738 503.5 22.3584C503.5 24.0527 504.433 25.1025 505.956 25.1025C507.172 25.1025 508.031 24.5166 508.261 23.5791H507.25ZM505.946 20.4492C506.723 20.4492 507.23 21.0107 507.255 21.8701H504.569C504.628 21.0156 505.17 20.4492 505.946 20.4492ZM510.126 18.75C510.492 18.75 510.79 18.4521 510.79 18.0908C510.79 17.7246 510.492 17.4268 510.126 17.4268C509.76 17.4268 509.462 17.7246 509.462 18.0908C509.462 18.4521 509.76 18.75 510.126 18.75ZM509.604 25H510.648V19.6973H509.604V25ZM515.312 22.0605C515.312 23.833 515.771 25.2832 516.723 26.5039H517.65C516.942 25.6055 516.396 23.7305 516.396 22.0557C516.396 20.3906 516.947 18.5107 517.65 17.6172H516.723C515.771 18.833 515.312 20.2881 515.312 22.0605ZM521.449 25.1709C523.017 25.1709 524.101 24.3262 524.101 23.1104C524.101 22.2021 523.505 21.4893 522.602 21.3184V21.2354C523.344 21.0449 523.812 20.4443 523.812 19.6777C523.812 18.5693 522.831 17.7832 521.449 17.7832C520.067 17.7832 519.086 18.5693 519.086 19.6777C519.086 20.4395 519.564 21.0498 520.297 21.2354V21.3184C519.394 21.499 518.803 22.2119 518.803 23.1152C518.803 24.3311 519.882 25.1709 521.449 25.1709ZM521.449 20.8984C520.683 20.8984 520.165 20.4492 520.165 19.7803C520.165 19.1016 520.678 18.6475 521.449 18.6475C522.221 18.6475 522.738 19.1016 522.738 19.7803C522.738 20.4492 522.216 20.8984 521.449 20.8984ZM521.449 24.3018C520.546 24.3018 519.921 23.7793 519.921 23.0273C519.921 22.2754 520.546 21.7578 521.449 21.7578C522.353 21.7578 522.978 22.2754 522.978 23.0273C522.978 23.7793 522.353 24.3018 521.449 24.3018ZM527.87 25.166C529.633 25.166 530.663 23.7695 530.663 21.377C530.663 19.0137 529.53 17.7832 527.914 17.7832C526.42 17.7832 525.36 18.8037 525.36 20.2344C525.36 21.5918 526.337 22.583 527.68 22.583C528.515 22.583 529.188 22.1924 529.525 21.5186H529.608C529.579 23.2666 528.959 24.2432 527.88 24.2432C527.235 24.2432 526.732 23.8916 526.566 23.3105H525.463C525.673 24.4434 526.62 25.166 527.87 25.166ZM527.919 21.6992C527.05 21.6992 526.449 21.0889 526.449 20.2002C526.449 19.3506 527.084 18.6963 527.929 18.6963C528.769 18.6963 529.403 19.3604 529.403 20.2295C529.403 21.084 528.783 21.6992 527.919 21.6992ZM533.163 21.1768C534.154 21.1768 534.745 20.5518 534.745 19.4971C534.745 18.4619 534.145 17.8223 533.163 17.8223C532.187 17.8223 531.581 18.4619 531.581 19.4971C531.581 20.5518 532.172 21.1768 533.163 21.1768ZM533.627 25L538.427 17.9541H537.514L532.709 25H533.627ZM533.163 20.4639C532.719 20.4639 532.465 20.1123 532.465 19.502C532.465 18.9014 532.724 18.5449 533.163 18.5449C533.603 18.5449 533.856 18.9014 533.856 19.502C533.856 20.1074 533.607 20.4639 533.163 20.4639ZM537.978 25.0732C538.969 25.0732 539.56 24.4482 539.56 23.3936C539.56 22.3535 538.959 21.7188 537.978 21.7188C537.001 21.7188 536.396 22.3584 536.396 23.3936C536.396 24.4434 536.991 25.0732 537.978 25.0732ZM537.978 24.3555C537.538 24.3555 537.284 24.0088 537.284 23.3984C537.284 22.7979 537.538 22.4365 537.978 22.4365C538.422 22.4365 538.676 22.7979 538.676 23.3984C538.676 24.0039 538.422 24.3555 537.978 24.3555ZM542.694 22.0605C542.694 20.293 542.235 18.8379 541.288 17.6172H540.36C541.063 18.5156 541.615 20.3906 541.615 22.0654C541.615 23.7354 541.063 25.6104 540.36 26.5039H541.288C542.235 25.2881 542.694 23.8379 542.694 22.0605Z" fill="#525560"/>
<path d="M365.5 8L368.531 13.25H362.469L365.5 8Z" fill="#525560"/>
<path d="M328.435 25V19.8828H328.513L332.131 25H333.117V17.9541H332.053V23.0811H331.975L328.356 17.9541H327.37V25H328.435ZM338.254 23.5791C338.059 24.0088 337.624 24.2432 336.989 24.2432C336.149 24.2432 335.607 23.6377 335.573 22.6758V22.627H339.328V22.2656C339.328 20.6055 338.435 19.5947 336.955 19.5947C335.456 19.5947 334.504 20.6738 334.504 22.3584C334.504 24.0527 335.437 25.1025 336.96 25.1025C338.176 25.1025 339.035 24.5166 339.265 23.5791H338.254ZM336.95 20.4492C337.727 20.4492 338.234 21.0107 338.259 21.8701H335.573C335.632 21.0156 336.174 20.4492 336.95 20.4492ZM347.473 19.6973H346.423L345.476 23.7891H345.393L344.299 19.6973H343.293L342.199 23.7891H342.121L341.169 19.6973H340.104L341.569 25H342.648L343.742 21.0449H343.825L344.924 25H346.013L347.473 19.6973ZM354.45 25V22.1143L356.936 17.9541H355.72L353.947 21.0254H353.864L352.092 17.9541H350.876L353.356 22.1143V25H354.45ZM359.416 25.1025C360.969 25.1025 361.921 24.0625 361.921 22.3486C361.921 20.6348 360.964 19.5947 359.416 19.5947C357.863 19.5947 356.906 20.6396 356.906 22.3486C356.906 24.0625 357.858 25.1025 359.416 25.1025ZM359.416 24.209C358.503 24.209 357.99 23.5303 357.99 22.3486C357.99 21.167 358.503 20.4834 359.416 20.4834C360.324 20.4834 360.842 21.167 360.842 22.3486C360.842 23.5254 360.324 24.209 359.416 24.209ZM363.186 25H364.235V21.8311C364.235 21.084 364.797 20.5713 365.593 20.5713C365.778 20.5713 366.091 20.6055 366.179 20.6299V19.6436C366.066 19.6191 365.866 19.6045 365.71 19.6045C365.017 19.6045 364.426 19.9805 364.274 20.5029H364.196V19.6973H363.186V25ZM368.371 21.9336H368.288V17.6172H367.238V25H368.288V23.0713L368.752 22.627L370.578 25H371.867L369.533 21.9678L371.721 19.6973H370.48L368.371 21.9336ZM375.954 22.0605C375.954 23.833 376.413 25.2832 377.365 26.5039H378.293C377.585 25.6055 377.038 23.7305 377.038 22.0557C377.038 20.3906 377.59 18.5107 378.293 17.6172H377.365C376.413 18.833 375.954 20.2881 375.954 22.0605ZM382.165 25.166C383.659 25.166 384.719 24.1455 384.719 22.7148C384.719 21.3574 383.742 20.3662 382.404 20.3662C381.569 20.3662 380.891 20.7568 380.554 21.4355H380.471C380.49 19.6484 381.135 18.7061 382.233 18.7061C382.897 18.7061 383.381 19.0479 383.518 19.6436H384.616C384.44 18.5254 383.532 17.7832 382.209 17.7832C380.495 17.7832 379.421 19.1797 379.421 21.5723C379.421 23.9697 380.578 25.166 382.165 25.166ZM382.155 24.2529C381.315 24.2529 380.676 23.5889 380.676 22.7197C380.676 21.8604 381.296 21.2402 382.165 21.2402C383.034 21.2402 383.635 21.8604 383.635 22.7441C383.635 23.5986 382.995 24.2529 382.155 24.2529ZM389.348 25H390.402V23.5986H391.374V22.6709H390.402V17.9541H388.845C387.873 19.4141 386.838 21.0791 385.91 22.6709V23.5986H389.348V25ZM386.96 22.6221C387.683 21.3867 388.542 20.0146 389.299 18.877H389.362V22.6904H386.96V22.6221ZM393.825 21.1768C394.816 21.1768 395.407 20.5518 395.407 19.4971C395.407 18.4619 394.807 17.8223 393.825 17.8223C392.849 17.8223 392.243 18.4619 392.243 19.4971C392.243 20.5518 392.834 21.1768 393.825 21.1768ZM394.289 25L399.089 17.9541H398.176L393.371 25H394.289ZM393.825 20.4639C393.381 20.4639 393.127 20.1123 393.127 19.502C393.127 18.9014 393.386 18.5449 393.825 18.5449C394.265 18.5449 394.519 18.9014 394.519 19.502C394.519 20.1074 394.27 20.4639 393.825 20.4639ZM398.64 25.0732C399.631 25.0732 400.222 24.4482 400.222 23.3936C400.222 22.3535 399.621 21.7188 398.64 21.7188C397.663 21.7188 397.058 22.3584 397.058 23.3936C397.058 24.4434 397.653 25.0732 398.64 25.0732ZM398.64 24.3555C398.2 24.3555 397.946 24.0088 397.946 23.3984C397.946 22.7979 398.2 22.4365 398.64 22.4365C399.084 22.4365 399.338 22.7979 399.338 23.3984C399.338 24.0039 399.084 24.3555 398.64 24.3555ZM403.356 22.0605C403.356 20.293 402.897 18.8379 401.95 17.6172H401.022C401.726 18.5156 402.277 20.3906 402.277 22.0654C402.277 23.7354 401.726 25.6104 401.022 26.5039H401.95C402.897 25.2881 403.356 23.8379 403.356 22.0605Z" fill="#525560"/>
<path d="M204.5 8L207.531 13.25H201.469L204.5 8Z" fill="#525560"/>
<path d="M168.221 17.7832C166.199 17.7832 164.93 19.2041 164.93 21.4746C164.93 23.7402 166.17 25.1709 168.221 25.1709C170.257 25.1709 171.507 23.7354 171.507 21.4746C171.507 19.209 170.247 17.7832 168.221 17.7832ZM168.221 18.75C169.554 18.75 170.389 19.8047 170.389 21.4746C170.389 23.1299 169.559 24.2041 168.221 24.2041C166.863 24.2041 166.048 23.1299 166.048 21.4746C166.048 19.8047 166.888 18.75 168.221 18.75ZM174.051 21.9336H173.968V17.6172H172.918V25H173.968V23.0713L174.432 22.627L176.258 25H177.547L175.213 21.9678L177.4 19.6973H176.16L174.051 21.9336ZM178.562 25H179.612V17.6172H178.562V25ZM182.659 25.0879C183.357 25.0879 183.938 24.7852 184.256 24.248H184.339V25H185.35V21.3721C185.35 20.2588 184.598 19.5947 183.265 19.5947C182.059 19.5947 181.199 20.1758 181.092 21.0693H182.107C182.225 20.6836 182.63 20.4639 183.216 20.4639C183.934 20.4639 184.305 20.791 184.305 21.3721V21.8359L182.864 21.9238C181.6 22.002 180.887 22.5537 180.887 23.5059C180.887 24.4727 181.634 25.0879 182.659 25.0879ZM182.928 24.2432C182.356 24.2432 181.941 23.9551 181.941 23.4619C181.941 22.9785 182.273 22.7197 183.006 22.6709L184.305 22.583V23.042C184.305 23.7256 183.719 24.2432 182.928 24.2432ZM186.893 25H187.942V21.8945C187.942 21.0645 188.421 20.5127 189.28 20.5127C190.022 20.5127 190.418 20.9473 190.418 21.8213V25H191.468V21.5723C191.468 20.3174 190.77 19.5996 189.637 19.5996C188.836 19.5996 188.274 19.9512 188.016 20.542H187.933V17.6172H186.893V25ZM195.193 25.1025C196.746 25.1025 197.698 24.0625 197.698 22.3486C197.698 20.6348 196.741 19.5947 195.193 19.5947C193.641 19.5947 192.684 20.6396 192.684 22.3486C192.684 24.0625 193.636 25.1025 195.193 25.1025ZM195.193 24.209C194.28 24.209 193.768 23.5303 193.768 22.3486C193.768 21.167 194.28 20.4834 195.193 20.4834C196.102 20.4834 196.619 21.167 196.619 22.3486C196.619 23.5254 196.102 24.209 195.193 24.209ZM198.963 25H200.013V21.7432C200.013 21.0498 200.496 20.5078 201.136 20.5078C201.761 20.5078 202.161 20.8838 202.161 21.4893V25H203.191V21.6455C203.191 21.0059 203.636 20.5078 204.314 20.5078C205.003 20.5078 205.345 20.8643 205.345 21.5967V25H206.395V21.3428C206.395 20.2393 205.77 19.5947 204.695 19.5947C203.958 19.5947 203.348 19.9707 203.079 20.542H202.996C202.762 19.9707 202.259 19.5947 201.531 19.5947C200.823 19.5947 200.286 19.9463 200.052 20.542H199.974V19.6973H198.963V25ZM209.339 25.0879C210.037 25.0879 210.618 24.7852 210.936 24.248H211.019V25H212.029V21.3721C212.029 20.2588 211.277 19.5947 209.944 19.5947C208.738 19.5947 207.879 20.1758 207.771 21.0693H208.787C208.904 20.6836 209.31 20.4639 209.896 20.4639C210.613 20.4639 210.984 20.791 210.984 21.3721V21.8359L209.544 21.9238C208.279 22.002 207.566 22.5537 207.566 23.5059C207.566 24.4727 208.313 25.0879 209.339 25.0879ZM209.607 24.2432C209.036 24.2432 208.621 23.9551 208.621 23.4619C208.621 22.9785 208.953 22.7197 209.686 22.6709L210.984 22.583V23.042C210.984 23.7256 210.398 24.2432 209.607 24.2432ZM216.644 22.0605C216.644 23.833 217.103 25.2832 218.055 26.5039H218.982C218.274 25.6055 217.728 23.7305 217.728 22.0557C217.728 20.3906 218.279 18.5107 218.982 17.6172H218.055C217.103 18.833 216.644 20.2881 216.644 22.0605ZM221.81 21.8115H222.688C223.606 21.8115 224.173 22.2803 224.173 23.0322C224.173 23.7646 223.567 24.2529 222.703 24.2529C221.849 24.2529 221.258 23.8086 221.194 23.1152H220.145C220.203 24.3555 221.229 25.1709 222.718 25.1709C224.188 25.1709 225.296 24.292 225.296 23.0908C225.296 22.124 224.69 21.499 223.753 21.3574V21.2744C224.49 21.0693 225.022 20.5078 225.027 19.6582C225.032 18.6572 224.207 17.7832 222.752 17.7832C221.268 17.7832 220.35 18.6377 220.276 19.834H221.312C221.375 19.0967 221.888 18.6816 222.688 18.6816C223.479 18.6816 223.948 19.1748 223.948 19.7949C223.948 20.4736 223.421 20.9521 222.659 20.9521H221.81V21.8115ZM226.619 19.9951H227.654C227.654 19.2139 228.177 18.6865 228.973 18.6865C229.754 18.6865 230.218 19.209 230.218 19.8926C230.218 20.4639 229.983 20.8154 229.09 21.748L226.678 24.2578V25H231.424V24.0674H228.172V23.9844L229.725 22.4219C230.96 21.1816 231.316 20.6006 231.316 19.7852C231.316 18.6279 230.364 17.7832 229.041 17.7832C227.62 17.7832 226.619 18.7012 226.619 19.9951ZM233.978 21.1768C234.969 21.1768 235.56 20.5518 235.56 19.4971C235.56 18.4619 234.959 17.8223 233.978 17.8223C233.001 17.8223 232.396 18.4619 232.396 19.4971C232.396 20.5518 232.986 21.1768 233.978 21.1768ZM234.441 25L239.241 17.9541H238.328L233.523 25H234.441ZM233.978 20.4639C233.533 20.4639 233.279 20.1123 233.279 19.502C233.279 18.9014 233.538 18.5449 233.978 18.5449C234.417 18.5449 234.671 18.9014 234.671 19.502C234.671 20.1074 234.422 20.4639 233.978 20.4639ZM238.792 25.0732C239.783 25.0732 240.374 24.4482 240.374 23.3936C240.374 22.3535 239.773 21.7188 238.792 21.7188C237.815 21.7188 237.21 22.3584 237.21 23.3936C237.21 24.4434 237.806 25.0732 238.792 25.0732ZM238.792 24.3555C238.353 24.3555 238.099 24.0088 238.099 23.3984C238.099 22.7979 238.353 22.4365 238.792 22.4365C239.236 22.4365 239.49 22.7979 239.49 23.3984C239.49 24.0039 239.236 24.3555 238.792 24.3555ZM243.509 22.0605C243.509 20.293 243.05 18.8379 242.103 17.6172H241.175C241.878 18.5156 242.43 20.3906 242.43 22.0654C242.43 23.7354 241.878 25.6104 241.175 26.5039H242.103C243.05 25.2881 243.509 23.8379 243.509 22.0605Z" fill="#525560"/>
<path d="M3.5 8L6.53109 13.25H0.468911L3.5 8Z" fill="#525560"/>
<path d="M1.94824 25V19.8828H2.02637L5.64453 25H6.63086V17.9541H5.56641V23.0811H5.48828L1.87012 17.9541H0.883789V25H1.94824ZM10.5273 25.1025C12.0801 25.1025 13.0322 24.0625 13.0322 22.3486C13.0322 20.6348 12.0752 19.5947 10.5273 19.5947C8.97461 19.5947 8.01758 20.6396 8.01758 22.3486C8.01758 24.0625 8.96973 25.1025 10.5273 25.1025ZM10.5273 24.209C9.61426 24.209 9.10156 23.5303 9.10156 22.3486C9.10156 21.167 9.61426 20.4834 10.5273 20.4834C11.4355 20.4834 11.9531 21.167 11.9531 22.3486C11.9531 23.5254 11.4355 24.209 10.5273 24.209ZM16.9092 21.1816C16.9092 21.9678 17.3779 22.417 18.3887 22.6514L19.3164 22.8711C19.8486 22.998 20.0977 23.2129 20.0977 23.5449C20.0977 23.9795 19.6338 24.2822 18.9795 24.2822C18.3447 24.2822 17.9541 24.0234 17.8223 23.6084H16.7725C16.8652 24.5312 17.6904 25.1025 18.9551 25.1025C20.2246 25.1025 21.1572 24.4336 21.1572 23.4473C21.1572 22.6758 20.6836 22.2412 19.6729 22.0068L18.7891 21.8018C18.2129 21.665 17.9443 21.46 17.9443 21.1328C17.9443 20.7031 18.3887 20.415 18.9746 20.415C19.5703 20.415 19.9512 20.6738 20.0488 21.0693H21.0547C20.9521 20.1514 20.1709 19.5947 18.9746 19.5947C17.7734 19.5947 16.9092 20.2588 16.9092 21.1816ZM24.668 25.1025C26.2207 25.1025 27.1729 24.0625 27.1729 22.3486C27.1729 20.6348 26.2158 19.5947 24.668 19.5947C23.1152 19.5947 22.1582 20.6396 22.1582 22.3486C22.1582 24.0625 23.1104 25.1025 24.668 25.1025ZM24.668 24.209C23.7549 24.209 23.2422 23.5303 23.2422 22.3486C23.2422 21.167 23.7549 20.4834 24.668 20.4834C25.5762 20.4834 26.0938 21.167 26.0938 22.3486C26.0938 23.5254 25.5762 24.209 24.668 24.209ZM32.9395 21.4014C32.8027 20.3711 31.9971 19.5947 30.6641 19.5947C29.1162 19.5947 28.1738 20.6445 28.1738 22.3291C28.1738 24.0479 29.1211 25.1025 30.6689 25.1025C31.9824 25.1025 32.8027 24.3652 32.9395 23.3203H31.9189C31.7822 23.8965 31.3281 24.209 30.6641 24.209C29.79 24.209 29.248 23.501 29.248 22.3291C29.248 21.1816 29.7852 20.4883 30.6641 20.4883C31.3672 20.4883 31.7969 20.8838 31.9189 21.4014H32.9395ZM34.6826 18.75C35.0488 18.75 35.3467 18.4521 35.3467 18.0908C35.3467 17.7246 35.0488 17.4268 34.6826 17.4268C34.3164 17.4268 34.0186 17.7246 34.0186 18.0908C34.0186 18.4521 34.3164 18.75 34.6826 18.75ZM34.1602 25H35.2051V19.6973H34.1602V25ZM38.2178 25.0879C38.916 25.0879 39.4971 24.7852 39.8145 24.248H39.8975V25H40.9082V21.3721C40.9082 20.2588 40.1562 19.5947 38.8232 19.5947C37.6172 19.5947 36.7578 20.1758 36.6504 21.0693H37.666C37.7832 20.6836 38.1885 20.4639 38.7744 20.4639C39.4922 20.4639 39.8633 20.791 39.8633 21.3721V21.8359L38.4229 21.9238C37.1582 22.002 36.4453 22.5537 36.4453 23.5059C36.4453 24.4727 37.1924 25.0879 38.2178 25.0879ZM38.4863 24.2432C37.915 24.2432 37.5 23.9551 37.5 23.4619C37.5 22.9785 37.832 22.7197 38.5645 22.6709L39.8633 22.583V23.042C39.8633 23.7256 39.2773 24.2432 38.4863 24.2432ZM42.4512 25H43.501V17.6172H42.4512V25ZM49.7559 25.0879C50.4883 25.0879 51.1084 24.7412 51.4258 24.1602H51.5088V25H52.5146V17.6172H51.4648V20.5371H51.3867C51.0986 19.9561 50.4834 19.6045 49.7559 19.6045C48.4131 19.6045 47.5488 20.6738 47.5488 22.3438C47.5488 24.0234 48.4033 25.0879 49.7559 25.0879ZM50.0537 20.5029C50.9326 20.5029 51.4844 21.2158 51.4844 22.3486C51.4844 23.4912 50.9375 24.1895 50.0537 24.1895C49.165 24.1895 48.6328 23.501 48.6328 22.3486C48.6328 21.2012 49.1699 20.5029 50.0537 20.5029ZM54.6338 18.75C55 18.75 55.2979 18.4521 55.2979 18.0908C55.2979 17.7246 55 17.4268 54.6338 17.4268C54.2676 17.4268 53.9697 17.7246 53.9697 18.0908C53.9697 18.4521 54.2676 18.75 54.6338 18.75ZM54.1113 25H55.1562V19.6973H54.1113V25ZM56.5771 21.1816C56.5771 21.9678 57.0459 22.417 58.0566 22.6514L58.9844 22.8711C59.5166 22.998 59.7656 23.2129 59.7656 23.5449C59.7656 23.9795 59.3018 24.2822 58.6475 24.2822C58.0127 24.2822 57.6221 24.0234 57.4902 23.6084H56.4404C56.5332 24.5312 57.3584 25.1025 58.623 25.1025C59.8926 25.1025 60.8252 24.4336 60.8252 23.4473C60.8252 22.6758 60.3516 22.2412 59.3408 22.0068L58.457 21.8018C57.8809 21.665 57.6123 21.46 57.6123 21.1328C57.6123 20.7031 58.0566 20.415 58.6426 20.415C59.2383 20.415 59.6191 20.6738 59.7168 21.0693H60.7227C60.6201 20.1514 59.8389 19.5947 58.6426 19.5947C57.4414 19.5947 56.5771 20.2588 56.5771 21.1816ZM62.4219 18.3594V19.7119H61.5771V20.5518H62.4219V23.6035C62.4219 24.624 62.8857 25.0342 64.0527 25.0342C64.2578 25.0342 64.4531 25.0098 64.624 24.9805V24.1455C64.4775 24.1602 64.3848 24.1699 64.2236 24.1699C63.7012 24.1699 63.4717 23.9209 63.4717 23.3496V20.5518H64.624V19.7119H63.4717V18.3594H62.4219ZM67.3291 25.0879C68.0273 25.0879 68.6084 24.7852 68.9258 24.248H69.0088V25H70.0195V21.3721C70.0195 20.2588 69.2676 19.5947 67.9346 19.5947C66.7285 19.5947 65.8691 20.1758 65.7617 21.0693H66.7773C66.8945 20.6836 67.2998 20.4639 67.8857 20.4639C68.6035 20.4639 68.9746 20.791 68.9746 21.3721V21.8359L67.5342 21.9238C66.2695 22.002 65.5566 22.5537 65.5566 23.5059C65.5566 24.4727 66.3037 25.0879 67.3291 25.0879ZM67.5977 24.2432C67.0264 24.2432 66.6113 23.9551 66.6113 23.4619C66.6113 22.9785 66.9434 22.7197 67.6758 22.6709L68.9746 22.583V23.042C68.9746 23.7256 68.3887 24.2432 67.5977 24.2432ZM71.5137 25H72.5635V21.8896C72.5635 21.0352 73.0566 20.5078 73.833 20.5078C74.6094 20.5078 74.9805 20.9375 74.9805 21.8164V25H76.0303V21.5674C76.0303 20.3027 75.376 19.5947 74.1895 19.5947C73.3887 19.5947 72.8613 19.9512 72.6025 20.5371H72.5244V19.6973H71.5137V25ZM82.0117 21.4014C81.875 20.3711 81.0693 19.5947 79.7363 19.5947C78.1885 19.5947 77.2461 20.6445 77.2461 22.3291C77.2461 24.0479 78.1934 25.1025 79.7412 25.1025C81.0547 25.1025 81.875 24.3652 82.0117 23.3203H80.9912C80.8545 23.8965 80.4004 24.209 79.7363 24.209C78.8623 24.209 78.3203 23.501 78.3203 22.3291C78.3203 21.1816 78.8574 20.4883 79.7363 20.4883C80.4395 20.4883 80.8691 20.8838 80.9912 21.4014H82.0117ZM83.7549 18.75C84.1211 18.75 84.4189 18.4521 84.4189 18.0908C84.4189 17.7246 84.1211 17.4268 83.7549 17.4268C83.3887 17.4268 83.0908 17.7246 83.0908 18.0908C83.0908 18.4521 83.3887 18.75 83.7549 18.75ZM83.2324 25H84.2773V19.6973H83.2324V25ZM85.8203 25H86.8701V21.8896C86.8701 21.0352 87.3633 20.5078 88.1396 20.5078C88.916 20.5078 89.2871 20.9375 89.2871 21.8164V25H90.3369V21.5674C90.3369 20.3027 89.6826 19.5947 88.4961 19.5947C87.6953 19.5947 87.168 19.9512 86.9092 20.5371H86.8311V19.6973H85.8203V25ZM94.0576 27.0264C95.5615 27.0264 96.5137 26.2598 96.5137 25.0537V19.6973H95.5078V20.542H95.4248C95.127 19.9658 94.4873 19.6045 93.7549 19.6045C92.3975 19.6045 91.5479 20.6738 91.5479 22.2803C91.5479 23.8721 92.3877 24.9219 93.7451 24.9219C94.4775 24.9219 95.0635 24.6045 95.3857 24.0283H95.4639V25.0488C95.4639 25.7666 94.9463 26.1963 94.0723 26.1963C93.3643 26.1963 92.9199 25.9424 92.832 25.542H91.7578C91.8701 26.4355 92.7295 27.0264 94.0576 27.0264ZM94.043 24.0527C93.1396 24.0527 92.6318 23.3643 92.6318 22.2803C92.6318 21.1963 93.1396 20.5029 94.043 20.5029C94.9365 20.5029 95.4834 21.1963 95.4834 22.2803C95.4834 23.3643 94.9414 24.0527 94.043 24.0527Z" fill="#525560"/>
<defs>
<linearGradient id="paint0_linear" x1="-1.32251e-07" y1="1.99991" x2="568" y2="1.99989" gradientUnits="userSpaceOnUse">
<stop stop-color="#2E0CB7"/>
<stop offset="1" stop-color="#BD0000"/>
</linearGradient>
</defs>
</svg>
