<?xml version="1.0" encoding="utf-8"?>
<!-- Generator: Adobe Illustrator 24.1.0, SVG Export Plug-In . SVG Version: 6.00 Build 0)  -->
<svg version="1.1" id="Layer_1" xmlns="http://www.w3.org/2000/svg" xmlns:xlink="http://www.w3.org/1999/xlink" x="0px" y="0px"
	 viewBox="0 0 180.7 207.6" style="enable-background:new 0 0 180.7 207.6;" xml:space="preserve">
<style type="text/css">
	.st0{fill-rule:evenodd;clip-rule:evenodd;fill:#FF8000;}
	.st1{fill-rule:evenodd;clip-rule:evenodd;fill:#FFFFFF;}
</style>
<path class="st0" d="M88.4,0L0,53.8v103.8l88.4,50l92.3-50V53.8L88.4,0z"/>
<path class="st1" d="M140,65l-1.1,0.3l-1.1,0.3l-1,0.3l-1,0.6l-1,0.6l-0.8,0.6l-0.8,0.7l-0.7,0.8l-0.6,0.8l-0.6,1l-0.6,1l-0.3,1
	l-0.3,1.1l-0.3,1.1v1.1l0.1,1.6l0.3,1.3l-20,20.2l-1.4-0.3l-1.6-0.1l-1.6,0.1l-1.4,0.3L89.9,84.9l0.3-1.4l0.1-1.6v-1.1l-0.3-1.1
	l-0.3-1.1l-0.3-1l-0.6-1l-0.6-1l-0.6-0.8L87,73.9l-0.7-0.7l-0.8-0.6l-1-0.6l-1-0.6l-1-0.3L81.3,71l-1.1-0.3H78L76.8,71l-1.1,0.3
	l-1,0.3l-1,0.6l-1,0.6l-0.8,0.6l-0.8,0.7l-0.7,0.8l-0.6,0.8l-0.6,1l-0.6,1l-0.3,1l-0.3,1.1l-0.3,1.1V82l0.1,1.6l0.3,1.4l-25.8,25.7
	l-1.4-0.3l-1.4-0.1h-1.1l-1.1,0.3l-1.1,0.3l-1,0.3l-1,0.6l-1,0.6l-0.8,0.6l-0.8,0.8l-0.7,0.7l-0.6,0.8l-0.6,1l-0.6,1l-0.3,1
	l-0.3,1.1l-0.3,1.1v1.1v1.1l0.3,1.1l0.3,1.1l0.3,1l0.6,1l0.6,1l0.6,0.8l0.7,0.8l0.8,0.7l0.8,0.6l1,0.6l1,0.6l1,0.3l1.1,0.3l1.1,0.3
	h2.3l1.1-0.3l1.1-0.3l1-0.3l1-0.6l1-0.6l0.8-0.6l0.7-0.7l0.8-0.8l0.6-0.8l0.6-1l0.6-1l0.3-1l0.3-1.1l0.3-1.1v-1.1l-0.1-1.4l-0.3-1.4
	l25.7-25.8l1.4,0.3l1.6,0.1l1.5-0.1l1.4-0.3l14.4,14.4l-0.3,1.4l-0.1,1.5v1.1l0.3,1.1l0.3,1.1l0.3,1l0.6,1l0.6,1l0.6,0.8l0.7,0.8
	l0.8,0.7l0.8,0.6l1,0.6l1,0.6l1,0.3l1.1,0.3l1.1,0.3h2.3l1.1-0.3l1.1-0.3l1-0.3l1-0.6l1-0.6l0.8-0.6l0.7-0.7l0.8-0.8l0.6-0.8l0.6-1
	l0.6-1l0.3-1l0.3-1.1l0.3-1.1v-1.1l-0.1-1.5l-0.3-1.4l20.2-20l1.3,0.3l1.5,0.1h1.1l1.1-0.3l1.1-0.3l1-0.3l1-0.6l1-0.6l0.8-0.6
	l0.7-0.7l0.8-0.8l0.6-0.8l0.6-1l0.6-1l0.3-1l0.3-1.1l0.3-1.1v-1.1v-1.1l-0.3-1.1l-0.3-1.1l-0.3-1l-0.6-1l-0.6-1l-0.6-0.8l-0.8-0.8
	l-0.7-0.7l-0.8-0.6l-1-0.6l-1-0.6l-1-0.3l-1.1-0.3l-1.1-0.3H140z"/>
</svg>
