<svg width="16" height="16" viewBox="0 0 16 16" fill="none" xmlns="http://www.w3.org/2000/svg">
<path fill-rule="evenodd" clip-rule="evenodd" d="M8.22056 1.75358C8.12638 1.57738 7.87377 1.57738 7.77959 1.75359L1.69795 13.1321C1.60894 13.2987 1.72961 13.5 1.91843 13.5H14.0817C14.2706 13.5 14.3912 13.2987 14.3022 13.1321L8.22056 1.75358ZM6.4567 1.04652C7.11596 -0.186933 8.8842 -0.186935 9.54346 1.04652L15.6251 12.4251C16.2482 13.5908 15.4035 15 14.0817 15H1.91843C0.596638 15 -0.248009 13.5908 0.375058 12.4251L6.4567 1.04652ZM9.00008 11C9.00008 11.5523 8.55237 12 8.00008 12C7.4478 12 7.00008 11.5523 7.00008 11C7.00008 10.4477 7.4478 10 8.00008 10C8.55237 10 9.00008 10.4477 9.00008 11ZM8.75008 5.75C8.75008 5.33579 8.41429 5 8.00008 5C7.58587 5 7.25008 5.33579 7.25008 5.75V8.25C7.25008 8.66421 7.58587 9 8.00008 9C8.41429 9 8.75008 8.66421 8.75008 8.25V5.75Z" fill="currentColor"/>
</svg>
