<svg width="12" height="16" viewBox="0 0 12 16" fill="none" xmlns="http://www.w3.org/2000/svg">
<path fill-rule="evenodd" clip-rule="evenodd" d="M1.5 1.75C1.5 1.61193 1.61193 1.5 1.75 1.5H4.74957C4.33556 1.50023 4 1.83593 4 2.25C4 2.66421 4.33579 3 4.75 3H5.25C5.66421 3 6 2.66421 6 2.25C6 1.83579 5.66421 1.5 5.25 1.5H7.33579C7.40209 1.5 7.46568 1.52634 7.51256 1.57322L10.4268 4.48744C10.4737 4.53432 10.5 4.59791 10.5 4.66421V13.25C10.5 13.3881 10.3881 13.5 10.25 13.5H9.75C9.3358 13.5 9 13.8358 9 14.25C9 14.6642 9.3358 15 9.75 15H10.25C11.2165 15 12 14.2165 12 13.25V4.66421C12 4.20008 11.8156 3.75497 11.4874 3.42678L8.5732 0.512563C8.245 0.184374 7.79991 0 7.33579 0H1.75C0.7835 0 0 0.783502 0 1.75V13.25C0 13.8987 0.35334 14.464 0.87446 14.7654C1.233 14.9728 1.6918 14.8503 1.8992 14.4918C2.10661 14.1332 1.98409 13.6744 1.62554 13.467C1.54886 13.4227 1.5 13.3416 1.5 13.25V1.75ZM6.75 3C6.33579 3 6 3.33579 6 3.75C6 4.16421 6.33579 4.5 6.75 4.5H7.25C7.66421 4.5 8 4.16421 8 3.75C8 3.33579 7.66421 3 7.25 3H6.75ZM4 5.25C4 4.83579 4.33579 4.5 4.75 4.5H5.25C5.66421 4.5 6 4.83579 6 5.25C6 5.66421 5.66421 6 5.25 6H4.75C4.33579 6 4 5.66421 4 5.25ZM6 6.75C6 6.33579 6.33579 6 6.75 6H7.25C7.66421 6 8 6.33579 8 6.75C8 7.16421 7.66421 7.5 7.25 7.5H6.75C6.33579 7.5 6 7.16421 6 6.75ZM4.75 7.5C4.33579 7.5 4 7.83579 4 8.25C4 8.66421 4.33579 9 4.75 9H5.25C5.66421 9 6 8.66421 6 8.25C6 7.83579 5.66421 7.5 5.25 7.5H4.75ZM6 9.75C6 9.33579 6.33579 9 6.75 9H7.25C7.66421 9 8 9.33579 8 9.75C8 10.1642 7.66421 10.5 7.25 10.5H6.75C6.33579 10.5 6 10.1642 6 9.75ZM5.25 10.5C4.2835 10.5 3.5 11.2835 3.5 12.25V15.25C3.5 15.6642 3.83579 16 4.25 16H6.75C7.16421 16 7.5 15.6642 7.5 15.25V12.25C7.5 11.2835 6.7165 10.5 5.75 10.5H5.25ZM5 12.25C5 12.1119 5.11193 12 5.25 12H5.75C5.88807 12 6 12.1119 6 12.25V14.5H5V12.25Z" fill="#525560"/>
</svg>
